Coordinates
version=1
nRows=10
nColumns=22
inDegrees=yes

Units are S.I. units (second, meters, Newtons, ...)
If the header above contains a line with 'inDegrees', this indicates whether rotational values are in degrees (yes) or radians (no).

endheader
time	pelvis_tilt	pelvis_list	pelvis_rotation	pelvis_tx	pelvis_ty	pelvis_tz	hip_flexion_r	hip_adduction_r	hip_rotation_r	knee_angle_r	ankle_angle_r	subtalar_angle_r	hip_flexion_l	hip_adduction_l	hip_rotation_l	knee_angle_l	ankle_angle_l	subtalar_angle_l	lumbar_extension	lumbar_bending	lumbar_rotation
      3.37000000	     -2.12267307	     -0.45669032	     12.96117238	     -0.16303202	      0.88390595	     -0.65563633	     31.46410973	      1.49272545	    -27.42990538	    -22.18381838	      2.72327682	    -12.59096069	    -13.15975643	     -4.38081003	     -6.05322042	    -27.70028068	     11.00749555	      5.93578106	     -6.22396460	      0.57658817	    -19.13557754
      3.38000000	     -2.14821100	     -0.76268469	     11.98547085	     -0.15087721	      0.88474410	     -0.65456636	     31.48121670	      2.26597175	    -26.41775787	    -23.27697292	      2.46467560	    -12.94107631	    -12.96242921	     -4.68058374	     -5.96023593	    -29.14546379	      8.71830533	      6.59884015	     -5.86490302	      0.96072361	    -18.84161137
      3.39000000	     -2.18195737	     -0.95041560	     10.99583361	     -0.13883585	      0.88589934	     -0.65333153	     31.39430616	      2.95943613	    -25.37880400	    -24.23677335	      2.38739319	    -13.18442080	    -12.65475788	     -4.85226451	     -5.74861033	    -30.70208797	      6.18332909	      7.25549922	     -5.54300572	      1.20582985	    -18.59630706
      3.40000000	     -2.21615123	     -1.01201964	     10.02197936	     -0.12697768	      0.88733627	     -0.65198082	     31.18713352	      3.54313028	    -24.35687281	    -25.04991784	      2.48970648	    -13.33991747	    -12.22610230	     -4.89244849	     -5.38219990	    -32.36814347	      3.43942413	      7.84858018	     -5.26797556	      1.30098038	    -18.40140490
      3.41000000	     -2.24338312	     -0.95705725	      9.09510243	     -0.11536815	      0.88900619	     -0.65059913	     30.85739889	      3.99966853	    -23.39895695	    -25.71537937	      2.74192662	    -13.43056040	    -11.66238078	     -4.81302308	     -4.83960634	    -34.14742777	      0.53725051	      8.34191540	     -5.04544742	      1.26844417	    -18.28842363
      3.42000000	     -2.23973322	     -0.79807806	      8.22831492	     -0.10407539	      0.89088470	     -0.64920815	     30.39576009	      4.32938416	    -22.53300769	    -26.24093525	      3.07481534	    -13.47230357	    -10.96601638	     -4.63822322	     -4.15998250	    -36.05219096	     -2.49116763	      8.62912044	     -4.90576169	      1.11996814	    -18.25498681
      3.43000000	     -2.26513139	     -0.60184407	      7.45294963	     -0.09310177	      0.89281147	     -0.64786352	     29.86247669	      4.57948660	    -21.79791011	    -26.58687468	      3.54231813	    -13.48590274	    -10.04869988	     -4.42046077	     -3.29414705	    -38.09676650	     -5.57845576	      8.85144363	     -4.75693411	      0.92283359	    -18.27851998
      3.44000000	     -2.24940323	     -0.37210763	      6.74350790	     -0.08249790	      0.89483314	     -0.64655387	     29.21180631	      4.76762460	    -21.16743774	    -26.78908777	      4.01578130	    -13.48204518	     -8.98348962	     -4.18759265	     -2.38668434	    -40.27724977	     -8.65648983	      8.81171940	     -4.69577698	      0.69675642	    -18.37073815
      3.45000000	     -2.24087267	     -0.17068473	      6.09809380	     -0.07222735	      0.89681276	     -0.64527090	     28.49870131	      4.95697779	    -20.64356153	    -26.83048003	      4.52525067	    -13.47959300	     -7.71794610	     -3.99734761	     -1.45686956	    -42.58731966	    -11.61369385	      8.59255893	     -4.64843424	      0.50230159	    -18.48036676
      3.46000000	     -2.23207332	     -0.01919922	      5.50020473	     -0.06227799	      0.89870876	     -0.64397417	     27.72389531	      5.18144845	    -20.21067099	    -26.71535012	      5.03050231	    -13.49569787	     -6.26645329	     -3.89608609	     -0.60042867	    -45.01450386	    -14.30315025	      8.19048481	     -4.62451189	      0.36095930	    -18.59676577
